<?xml version="1.0" encoding="UTF-8" standalone="no"?>
<!-- Created with Inkscape (http://www.inkscape.org/) -->

<svg
   width="101.91503mm"
   height="126.83825mm"
   viewBox="0 0 101.91503 126.83825"
   version="1.1"
   id="svg5"
   inkscape:version="1.1 (c4e8f9e, 2021-05-24)"
   sodipodi:docname="drawing.svg"
   xmlns:inkscape="http://www.inkscape.org/namespaces/inkscape"
   xmlns:sodipodi="http://sodipodi.sourceforge.net/DTD/sodipodi-0.dtd"
   xmlns="http://www.w3.org/2000/svg"
   xmlns:svg="http://www.w3.org/2000/svg">
  <sodipodi:namedview
     id="namedview7"
     pagecolor="#505050"
     bordercolor="#eeeeee"
     borderopacity="1"
     inkscape:pageshadow="0"
     inkscape:pageopacity="0"
     inkscape:pagecheckerboard="0"
     inkscape:document-units="mm"
     showgrid="false"
     inkscape:zoom="0.85903563"
     inkscape:cx="130.37876"
     inkscape:cy="260.75752"
     inkscape:window-width="1440"
     inkscape:window-height="872"
     inkscape:window-x="0"
     inkscape:window-y="0"
     inkscape:window-maximized="1"
     inkscape:current-layer="layer1" />
  <defs
     id="defs2" />
  <g
     inkscape:label="Layer 1"
     inkscape:groupmode="layer"
     id="layer1"
     transform="translate(-59.462685,-20.356399)">
    <path
       style="fill:#00222b;stroke-width:0.264583"
       d="m 123.91136,146.6873 c -12.39372,-2.69517 -20.5965,-6.80143 -36.909517,-18.47666 -2.1254,-1.52115 -6.49954,-5.09801 -8.5988,-7.03148 -1.30969,-1.20626 -2.59685,-2.37983 -2.86036,-2.60794 -6.809709,-5.89494 -14.547491,-18.55234 -15.824529,-25.88563 -1.97032,-11.31442 7.723354,-20.17067 19.875509,-18.1585 0.92604,0.15334 0.92604,0.15334 0.95927,4.29657 0.0676,8.42555 2.56347,18.25228 6.66365,26.23594 14.609547,28.44697 45.578527,41.0103 51.138107,20.74545 1.85512,-6.76197 -6.46115,-13.00522 -13.58343,-10.19747 -0.99758,0.39327 -0.93791,0.22958 0.71859,-1.97128 6.44699,-8.56559 21.04065,-7.24058 25.77075,2.33983 7.60259,15.39837 -9.49209,34.59444 -27.34924,30.71117 z m -7.19855,-17.45367 c -10.95737,-5.7742 -15.71759,-15.15068 -15.76497,-31.0532 -0.051,-17.11181 8.70671,-36.22398 21.50832,-46.93827 12.26671,-10.266616 28.2145,-3.89448 26.07627,10.4191 -0.88793,5.94391 -4.17661,9.44926 -15.64199,16.6725 -11.65069,7.34 -20.49106,19.96402 -22.21565,31.72392 -1.0113,6.89595 1.37773,12.95248 2.73826,14.50298 1.66193,0.73601 0.68677,-0.83103 0.13782,-4.64733 -3.90032,-27.11636 34.96604,-56.35262 45.8782,-34.51073 6.07726,12.1643 -2.76319,22.71831 -16.78286,20.03591 -15.65526,-2.99535 -29.25376,10.89381 -23.52605,24.0289 0.55037,1.26213 0.40444,1.24796 -2.40738,-0.23378 z m -13.73129,-8.90447 C 89.954873,106.25609 84.903073,94.16408 84.443053,75.95543 84.004443,58.59397 88.544133,46.5965 101.10393,31.924239 c 1.48451,-1.734191 3.31345,-3.968441 4.06433,-4.965002 0.75087,-0.996561 3.2257,-4.351752 3.54645,-5.231444 0.82637,-2.2664 2.52632,-1.741572 5.53183,1.707851 6.71316,7.704703 5.50543,20.464086 -3.16806,33.469786 -0.8249,1.23693 -5.2261,8.63203 -5.44991,8.99584 -8.000457,13.00485 -10.589757,39.21335 -4.86426,49.23528 0.61635,1.07888 1.41882,2.49737 1.78325,3.15221 0.36444,0.65485 1.85792,3.57874 0.43396,2.0404 z"
       id="path1753"
       sodipodi:nodetypes="ssscssssssssscsssssccsssccssssssscsss" />
  </g>
</svg>
