<?xml version="1.0" standalone="yes"?>
<svg xmlns="http://www.w3.org/2000/svg" width="1920" height="1920">
  <style>
    /* Default color for light mode */
    path {
      fill: #8a2be2; /* Dark purple color */
      stroke: none;
    }

    /* Change color for dark mode */
    @media (prefers-color-scheme: dark) {
      path {
        fill: #4b0082; /* Darker purple color for dark mode */
      }
    }
  </style>
<path style="fill:#010101; stroke:none;" d="M949 336.424C927.233 339.284 906.634 343.723 887 354.12C839.222 379.419 807.926 428.358 799.325 481C784.729 570.332 839.79 664.36 931 682.6C944.972 685.395 960.8 686.458 975 684.714C993.357 682.459 1011.39 678.037 1028 669.73C1088.57 639.445 1125.91 572.354 1122.96 505C1119.66 429.712 1072.27 359.357 997 340.627C981.76 336.834 964.69 334.364 949 336.424M940 734.424C931.702 735.514 923.34 734.674 915 735.039C901.704 735.622 888.256 736.898 875 738.17C815.624 743.867 757.007 759.312 707 792.667C675.867 813.432 647.69 843.483 636.569 880C626.531 912.965 626.452 947.932 624.961 982C623.414 1017.32 622.37 1052.91 617.424 1088C614.822 1106.47 613.545 1126.68 606.127 1144C593.366 1173.79 564.453 1191.82 535 1202.31C517.287 1208.62 498.656 1210.41 484.004 1223.29C461.536 1243.04 457.726 1282.89 479.289 1304.71C508.664 1334.45 554.594 1316.54 588 1304.05C625.111 1290.17 660.214 1270.4 690 1244.28C706.452 1229.86 721.816 1214.48 730.573 1194C742.914 1165.14 741.753 1131.6 746.754 1101C750.502 1078.07 754.764 1055.49 760.629 1033C761.984 1027.8 763.325 1021.85 765.8 1017.06C766.98 1014.78 769.203 1013.02 771.402 1015.38C773.349 1017.46 773.344 1021.33 773.729 1024C774.647 1030.34 775.578 1036.65 776.424 1043C780.212 1071.42 779.343 1099.5 779.004 1128C778.467 1173.14 768.3 1217.79 755.859 1261C749.714 1282.34 742.637 1304.9 722 1316.33C708.219 1323.97 693.148 1322.82 678 1323C667.492 1323.13 656.467 1324.17 646 1325.17C607.079 1328.87 567.318 1335.09 532 1352.75C506.803 1365.35 485.392 1382.74 473.731 1409C470.353 1416.61 467.915 1424.8 466.464 1433C464.409 1444.61 464.838 1456.36 466.286 1468C469.037 1490.1 480.528 1512.82 497.004 1527.83C514.292 1543.58 536.403 1553.82 558 1562.19C589.341 1574.33 623.637 1579.79 657 1582.09C717.835 1586.28 777.867 1581.27 838 1571.25C866.047 1566.57 893.444 1559.76 921 1552.87C928.083 1551.1 934.987 1548.91 942 1546.91C945.084 1546.03 949.926 1545.66 952.214 1543.16C956.654 1538.31 944.832 1534.66 942 1533.42C927.922 1527.3 913.726 1521.13 900 1514.25C849.282 1488.83 802.551 1450.38 747 1435.73C733.039 1432.05 719.364 1430.98 705 1431C703.062 1431 692.357 1432 694.921 1427.39C696.526 1424.5 702.094 1423.61 705 1422.9C715.427 1420.35 725.428 1420.14 736 1420.91C778.178 1424 819.592 1442.16 858 1458.72C903.868 1478.5 948.087 1501.93 994 1521.57C1069.22 1553.76 1151.53 1581.96 1234 1583.99C1269.45 1584.85 1305.73 1579.87 1340 1570.84C1372.37 1562.32 1408.56 1546.87 1430.7 1521C1469.54 1475.62 1460.2 1403.05 1413 1367.67C1373.72 1338.22 1321.61 1329.7 1274 1325.17C1263.55 1324.18 1252.49 1323.13 1242 1323C1227.02 1322.83 1212.77 1323.98 1199 1316.89C1175.45 1304.77 1168.6 1277.66 1161.86 1254C1150.32 1213.46 1142.8 1172.08 1140.96 1130C1140.22 1113 1139.21 1096.01 1140.83 1079C1142.29 1063.64 1143 1048.37 1144.84 1033C1145.45 1027.94 1144.93 1019.55 1148.14 1015.34C1150.33 1012.46 1152.94 1014.59 1154.2 1017.06C1156.52 1021.63 1157.59 1027.1 1159 1032C1165.16 1053.37 1168.64 1075.15 1172.58 1097C1178.2 1128.21 1176.43 1162.31 1188.45 1192C1197.18 1213.53 1212.9 1229.24 1230 1244.29C1259.75 1270.47 1294.85 1290.2 1332 1304.05C1364.3 1316.09 1409.12 1334.22 1438.49 1306.73C1461.74 1284.96 1459.58 1244.25 1435.96 1223.44C1421.01 1210.26 1401.25 1207.99 1383 1201.66C1353.09 1191.27 1323.19 1171.03 1312.34 1140C1306.04 1121.96 1303.72 1101.92 1301.83 1083C1298.56 1050.33 1296.47 1017.77 1295.04 985C1293.45 948.752 1293.58 911.927 1282.25 877C1271.63 844.228 1246.51 816.571 1219 796.86C1161.41 755.594 1093.93 743.395 1025 736.83C1010.97 735.494 997.026 735.871 983 734.911C969.004 733.952 953.995 732.587 940 734.424z"/>
</svg>
